<?xml version="1.0" standalone="no"?>
<!DOCTYPE svg PUBLIC "-//W3C//DTD SVG 20010904//EN"
 "http://www.w3.org/TR/2001/REC-SVG-20010904/DTD/svg10.dtd">
<svg version="1.0" xmlns="http://www.w3.org/2000/svg"
 width="626.000000pt" height="740.000000pt" viewBox="0 0 626.000000 740.000000"
 preserveAspectRatio="xMidYMid meet">
<metadata>
Created by potrace 1.13, written by Peter Selinger 2001-2015
</metadata>
<g transform="translate(0.000000,740.000000) scale(0.100000,-0.100000)"
fill="#000000" stroke="none">
<path d="M1220 7349 c-112 -11 -340 -104 -438 -176 -74 -55 -201 -193 -248
-268 -91 -147 -114 -206 -150 -387 -28 -143 -28 -207 0 -354 14 -75 64 -217
78 -222 15 -6 8 -27 -23 -62 -169 -197 -226 -312 -250 -505 -14 -113 -7 -197
25 -304 69 -226 248 -426 492 -550 104 -53 106 -67 18 -131 -59 -44 -61 -46
-134 -126 -178 -193 -274 -421 -301 -711 -15 -173 -2 -288 58 -478 76 -245
264 -498 453 -610 64 -38 64 -56 3 -86 -322 -155 -529 -428 -604 -796 -33
-162 -27 -458 11 -532 4 -9 18 -45 30 -81 45 -132 104 -234 203 -354 17 -22
37 -45 42 -52 27 -34 192 -154 257 -186 237 -120 533 -119 739 3 84 49 161
114 204 171 22 29 43 55 46 58 4 3 25 42 47 86 44 88 77 198 88 295 4 33 12
63 19 65 6 3 62 -9 123 -26 133 -37 404 -92 449 -90 18 0 62 -4 98 -10 77 -12
373 -16 490 -6 252 22 324 29 455 46 80 10 185 26 234 34 48 9 92 13 97 10 12
-7 11 -60 -1 -106 -23 -83 23 -331 74 -398 7 -8 18 -28 26 -44 27 -54 140
-164 218 -213 68 -43 134 -74 237 -112 89 -32 318 -44 440 -22 70 12 167 38
195 53 8 4 42 19 75 34 33 14 62 29 65 32 3 4 28 22 55 41 28 19 81 64 118
100 122 117 195 238 241 394 23 81 29 124 40 282 6 77 -18 237 -50 342 l-26
82 34 47 c116 163 172 270 208 399 30 108 33 295 6 410 -35 153 -109 281 -233
402 -73 71 -218 175 -275 196 -10 3 -18 13 -18 20 0 19 3 20 280 102 112 33
114 35 108 83 -3 22 -3 44 1 49 7 12 83 37 286 93 17 5 60 18 98 29 37 12 74
21 82 21 8 0 18 7 22 15 11 20 -5 255 -18 272 -7 7 -23 19 -38 26 -40 19 -48
68 -28 179 9 51 24 140 33 198 8 58 24 153 35 211 31 171 25 226 -35 306 -31
42 -87 77 -140 88 -24 5 -27 10 -23 33 3 15 17 56 32 91 24 57 27 74 23 143
-4 68 -11 90 -47 161 -36 70 -51 89 -109 132 l-67 51 -8 107 c-4 58 -11 117
-16 130 -14 37 -117 61 -229 54 -100 -6 -104 -7 -200 -40 l-70 -24 -5 21 c-3
11 -3 35 0 51 3 17 8 82 10 145 19 464 -168 950 -488 1269 -128 128 -356 229
-569 252 -127 14 -272 1 -361 -31 -30 -11 -61 -20 -69 -20 -23 0 -125 -84
-169 -140 -71 -90 -100 -209 -74 -308 18 -69 12 -71 -195 -72 -97 0 -197 -2
-222 -5 -25 -2 -85 -6 -134 -10 -49 -3 -91 -7 -95 -9 -3 -2 -35 -7 -71 -11
-97 -9 -176 -21 -265 -38 -44 -9 -96 -18 -116 -21 -20 -3 -90 -19 -155 -36
-167 -43 -166 -43 -153 39 21 128 3 272 -47 376 -58 119 -77 147 -151 222 -60
60 -91 82 -175 122 -57 28 -132 58 -168 67 -73 20 -256 32 -340 23z m280 -30
c195 -41 356 -138 445 -271 17 -23 32 -45 35 -48 39 -37 87 -184 96 -292 5
-73 -5 -197 -21 -240 -3 -7 -1 -19 4 -26 6 -11 27 -8 107 14 54 14 126 33 159
40 100 23 455 82 535 90 41 3 89 8 105 10 86 8 268 14 427 15 98 0 178 4 178
9 0 4 -9 29 -20 55 -24 56 -26 150 -5 221 8 27 34 73 59 103 113 137 306 199
560 179 225 -17 423 -105 571 -253 84 -84 145 -151 145 -161 0 -4 10 -21 23
-38 37 -50 122 -196 152 -261 54 -120 96 -254 130 -420 26 -126 33 -371 14
-514 -10 -76 -10 -86 6 -97 15 -11 25 -8 69 16 94 53 255 75 366 49 76 -17 80
-26 80 -155 l0 -114 59 -37 c111 -72 175 -191 175 -328 0 -73 -3 -87 -38 -157
-20 -43 -35 -82 -31 -88 3 -5 17 -10 30 -10 51 0 125 -42 156 -89 51 -77 54
-109 29 -256 -12 -71 -28 -170 -35 -220 -7 -49 -16 -97 -19 -105 -4 -9 -8 -40
-11 -70 -2 -30 -9 -81 -15 -113 -15 -72 -3 -107 46 -133 39 -21 43 -35 47
-173 l2 -94 -65 -22 c-36 -13 -132 -42 -215 -64 -222 -62 -257 -76 -225 -96 6
-3 10 -19 10 -36 0 -39 -23 -50 -255 -115 -114 -33 -169 -52 -173 -62 -2 -6
23 -23 55 -38 111 -53 207 -120 289 -199 119 -117 176 -213 219 -369 56 -206
22 -470 -81 -628 -13 -21 -24 -41 -24 -45 0 -5 -22 -36 -48 -70 -73 -96 -87
-117 -85 -125 1 -3 5 -19 8 -35 2 -16 11 -48 19 -70 32 -91 49 -233 42 -365
-9 -193 -45 -319 -132 -468 -55 -94 -185 -224 -278 -278 -207 -121 -291 -146
-501 -146 -85 0 -178 5 -215 13 -118 24 -306 117 -390 193 -37 34 -102 116
-137 173 -74 122 -103 311 -67 435 26 91 28 106 10 113 -9 4 -26 3 -39 -2 -23
-9 -140 -31 -297 -55 -299 -47 -825 -65 -1060 -37 -137 16 -323 53 -435 87
-160 48 -189 54 -198 45 -5 -5 -11 -45 -13 -90 -3 -79 -19 -156 -36 -175 -4
-6 -8 -18 -8 -28 0 -10 -4 -26 -9 -36 -6 -9 -21 -44 -35 -76 -43 -97 -169
-229 -276 -287 -14 -8 -27 -17 -30 -20 -3 -4 -38 -18 -79 -33 -100 -36 -259
-53 -338 -37 -32 7 -71 14 -88 16 -87 12 -220 81 -345 177 -123 95 -179 169
-279 373 -77 158 -99 236 -107 376 -7 113 8 323 26 384 45 149 88 248 153 350
48 78 151 196 206 238 95 73 117 86 214 133 53 26 97 54 97 61 0 11 -96 83
-112 83 -8 0 -72 56 -146 128 -77 75 -131 152 -191 273 -29 57 -56 111 -61
120 -18 36 -52 195 -64 311 -24 211 2 384 94 618 59 151 200 340 312 416 32
21 58 42 58 47 0 4 7 7 15 7 16 0 51 47 41 57 -3 3 -44 23 -89 43 -83 37 -220
121 -235 144 -4 6 -23 24 -42 40 -116 95 -205 238 -254 406 -17 58 -23 219
-12 305 8 59 52 190 76 225 10 14 29 45 43 70 14 25 57 78 96 119 39 41 71 80
71 88 0 7 -8 26 -17 40 -21 32 -37 73 -65 168 -17 57 -22 98 -22 215 -1 195
20 287 100 457 24 50 63 115 86 145 60 75 215 228 233 228 2 0 24 14 48 30 25
17 48 30 52 30 4 0 36 14 72 30 35 17 68 30 73 30 5 0 31 7 57 16 26 9 68 19
93 23 62 10 223 4 290 -10z"/>
<path d="M1212 7178 c-35 -4 -89 -16 -120 -27 -53 -18 -161 -69 -172 -81 -3
-3 -21 -14 -40 -24 -19 -11 -40 -25 -46 -30 -6 -6 -22 -18 -34 -26 -13 -8 -28
-21 -34 -28 -6 -7 -27 -30 -46 -51 -91 -102 -145 -211 -191 -386 -7 -27 -13
-107 -13 -180 -1 -150 15 -216 90 -370 24 -50 44 -99 44 -109 0 -10 -26 -44
-57 -75 -63 -62 -96 -104 -130 -162 -33 -59 -72 -163 -77 -206 -2 -21 -7 -59
-11 -85 -12 -73 19 -228 64 -318 37 -74 107 -180 119 -180 4 0 30 -21 57 -46
28 -25 70 -56 95 -69 25 -13 56 -32 69 -44 13 -12 30 -21 38 -21 7 0 32 -9 56
-19 132 -60 254 -81 436 -75 117 3 237 34 359 91 50 23 94 43 97 43 18 0 320
159 370 194 16 12 37 26 46 31 59 35 192 132 196 142 3 7 10 13 17 13 6 0 63
43 126 95 63 52 147 120 185 152 73 59 197 167 300 263 98 89 303 260 313 260
4 0 19 12 33 26 13 14 47 39 76 56 55 31 70 52 52 74 -18 22 -112 9 -274 -36
-158 -44 -235 -71 -360 -125 -16 -7 -46 -18 -65 -25 -19 -7 -54 -21 -77 -31
-24 -11 -62 -27 -85 -38 -24 -10 -59 -24 -78 -31 -19 -7 -51 -20 -70 -30 -19
-10 -54 -23 -77 -29 -24 -7 -43 -16 -43 -21 0 -6 -5 -10 -11 -10 -6 0 -41 -12
-77 -26 -64 -25 -85 -34 -177 -74 -45 -20 -315 -86 -385 -95 -198 -24 -298
-28 -403 -16 -170 21 -278 72 -322 152 -28 53 -32 87 -10 95 8 4 45 -6 82 -21
117 -47 280 -76 448 -80 167 -5 268 5 460 42 108 20 355 91 430 123 11 4 34
13 50 19 81 28 271 104 281 112 7 6 16 9 20 8 5 -1 16 0 24 4 96 36 158 57
173 57 15 0 68 17 122 40 72 31 326 89 470 108 287 39 654 -19 850 -133 22
-12 62 -35 88 -50 27 -14 56 -34 66 -43 10 -9 28 -24 41 -32 60 -39 260 -274
260 -305 0 -3 16 -40 36 -82 50 -108 39 -118 -43 -43 -38 34 -78 66 -90 72
-39 19 -41 65 -3 53 26 -8 34 11 20 45 -17 42 -199 202 -310 275 -106 69 -211
125 -235 125 -9 0 -26 6 -38 14 -53 33 -259 49 -422 32 -65 -7 -111 -22 -211
-67 -22 -11 -45 -19 -51 -19 -7 0 -18 -6 -26 -14 -8 -8 -36 -28 -62 -45 -63
-40 -225 -205 -256 -261 -14 -25 -30 -54 -37 -65 -52 -92 -92 -214 -92 -280 0
-48 38 -141 74 -178 102 -107 228 -134 344 -75 95 49 139 127 163 290 20 140
89 283 163 339 68 52 140 85 214 100 109 21 321 0 417 -41 11 -4 35 -14 53
-22 17 -7 32 -19 32 -26 0 -16 -36 -10 -120 19 -119 41 -233 53 -345 36 -80
-12 -135 -34 -185 -77 -19 -16 -40 -34 -46 -39 -6 -5 -23 -39 -39 -75 -26 -61
-27 -70 -16 -109 29 -99 75 -158 160 -205 21 -13 83 -16 136 -8 37 5 137 55
171 85 54 48 173 112 233 127 78 18 218 18 255 -1 82 -43 132 -71 143 -80 7
-5 18 -15 25 -21 32 -26 52 -32 69 -21 23 14 30 7 40 -40 17 -83 28 -116 42
-130 12 -13 17 -11 36 13 11 14 21 36 21 48 0 26 -22 89 -37 107 -5 8 -16 39
-22 69 -26 116 -66 226 -118 324 -30 55 -58 103 -62 106 -5 3 -11 15 -15 28
-4 12 -12 22 -17 22 -5 0 -9 7 -9 15 0 28 -200 238 -290 305 -64 47 -230 138
-300 164 -296 111 -407 141 -545 149 -28 2 -55 6 -61 10 -21 13 -360 18 -469
7 -60 -6 -135 -13 -165 -15 -30 -3 -64 -8 -75 -11 -11 -3 -42 -10 -70 -15
-101 -17 -152 -27 -235 -47 -47 -11 -130 -30 -185 -42 -55 -12 -104 -26 -110
-30 -5 -4 -32 -11 -60 -14 -27 -4 -70 -14 -95 -21 -185 -57 -449 -82 -545 -52
-43 13 -105 47 -105 58 0 3 -9 16 -20 29 -40 46 -18 127 40 145 28 9 49 -19
50 -65 0 -20 7 -46 16 -59 16 -22 21 -23 93 -17 42 3 92 11 111 17 71 24 146
93 188 173 23 45 27 63 27 147 0 92 -2 99 -39 175 -50 100 -139 188 -251 249
-86 47 -186 85 -222 85 -12 0 -25 5 -28 10 -4 6 -9 8 -13 6 -4 -2 -36 -1 -72
3 -36 3 -93 3 -128 -1z"/>
<path d="M3965 7049 c-63 -10 -193 -77 -214 -109 -8 -14 -19 -27 -23 -30 -16
-12 -38 -82 -38 -121 0 -39 43 -139 60 -139 4 0 19 -11 33 -24 52 -48 150 -75
352 -96 115 -12 245 -49 345 -98 30 -15 57 -30 60 -33 3 -3 21 -14 40 -23 20
-9 50 -29 68 -44 17 -15 43 -36 58 -47 14 -11 30 -24 34 -30 5 -5 26 -30 48
-55 70 -80 152 -245 188 -375 11 -40 18 -115 21 -227 4 -130 8 -170 20 -179
42 -35 67 93 58 301 -11 250 -32 381 -97 595 -21 71 -125 285 -138 285 -4 0
-12 11 -18 25 -13 28 -16 32 -59 83 -131 155 -254 240 -428 297 -149 49 -261
62 -370 44z"/>
<path d="M5450 5348 c-25 -5 -55 -10 -67 -12 -38 -5 -106 -38 -160 -79 -145
-108 -135 -319 18 -397 42 -22 137 -27 199 -11 84 21 97 21 124 -4 51 -47 22
-110 -60 -134 -43 -13 -53 -13 -98 3 -28 10 -68 31 -89 46 -52 38 -74 31 -82
-29 -3 -25 -8 -59 -10 -76 -15 -97 98 -126 294 -74 41 11 94 33 118 50 24 16
48 29 54 29 5 0 9 3 9 8 0 4 12 21 26 37 69 78 84 187 38 278 -48 97 -150 135
-284 108 -68 -15 -130 -18 -130 -8 0 4 -6 7 -14 7 -17 0 -27 47 -15 77 10 27
58 53 96 53 15 0 52 -14 82 -30 66 -37 89 -38 101 -5 14 37 16 143 3 156 -14
14 -96 18 -153 7z"/>
<path d="M4080 5120 c-122 -85 -112 -72 -105 -155 6 -58 4 -78 -10 -104 -15
-31 -19 -32 -53 -25 -77 16 -231 -4 -313 -39 -53 -23 -124 -96 -149 -151 -44
-100 1 -234 95 -284 55 -28 96 -32 174 -16 64 13 145 15 155 3 16 -19 25 -52
20 -76 -9 -45 -49 -68 -119 -67 -51 0 -69 6 -120 37 -33 20 -68 37 -77 37 -25
0 -36 -28 -38 -91 -2 -85 -4 -107 -13 -115 -10 -11 -40 24 -55 66 -37 99 -73
218 -101 328 -49 197 -67 219 -154 192 -23 -8 -48 -15 -56 -16 -8 -2 -25 -5
-37 -8 -13 -4 -26 -1 -29 4 -14 22 24 57 82 76 88 30 97 37 96 77 -1 53 -32
136 -54 147 -17 10 -111 -10 -179 -37 -8 -3 -19 -7 -25 -7 -5 -1 -20 -7 -32
-14 -25 -14 -31 -58 -14 -90 16 -28 51 -141 51 -162 0 -30 -40 -50 -110 -55
-34 -3 -70 -10 -80 -15 -10 -5 -20 -7 -23 -4 -6 6 -12 -14 -22 -68 -7 -44 -21
-49 -35 -13 -17 45 -68 45 -215 -2 -44 -14 -98 -31 -120 -38 -50 -16 -56 -48
-10 -53 78 -7 119 -58 145 -177 6 -27 15 -54 19 -60 5 -5 16 -46 25 -90 9 -44
24 -115 33 -158 17 -86 12 -102 -28 -92 -38 10 -87 118 -154 345 -40 136 -82
204 -133 216 -15 4 -31 10 -37 14 -5 3 -32 6 -60 5 -103 -4 -199 -50 -211
-103 -11 -51 -15 -62 -23 -62 -9 0 -56 140 -68 200 -9 50 -37 113 -57 129 -15
12 -27 13 -79 2 -34 -7 -87 -21 -117 -31 -37 -13 -96 -20 -180 -24 -123 -5
-211 -19 -320 -52 -51 -15 -87 -30 -210 -87 -53 -25 -189 -133 -245 -195 -51
-57 -125 -162 -125 -178 0 -7 -4 -14 -8 -16 -5 -1 -25 -43 -45 -92 -136 -326
-83 -797 120 -1066 58 -76 70 -89 138 -145 33 -28 62 -52 65 -55 14 -14 70
-50 78 -50 5 0 33 -13 63 -29 48 -25 211 -75 264 -81 90 -9 311 -2 385 14 101
21 142 46 211 130 27 34 70 84 94 111 25 28 63 70 84 95 39 44 40 44 55 25 9
-11 25 -39 37 -62 11 -24 33 -52 48 -62 34 -24 115 -39 161 -30 19 4 49 9 65
12 71 11 89 31 121 135 6 19 22 14 35 -10 27 -51 46 -53 169 -17 36 10 99 28
140 40 41 12 82 28 90 35 13 11 20 11 44 -1 66 -35 156 -10 201 55 14 21 42
53 62 71 31 28 40 31 62 22 15 -5 58 -11 96 -12 118 -4 174 33 194 129 6 33
41 57 41 29 0 -20 62 -69 88 -69 28 0 185 133 190 162 2 11 -5 21 -20 27 -43
17 -77 70 -104 168 -62 223 -64 233 -44 233 4 0 24 -25 45 -55 20 -30 41 -55
46 -55 4 0 10 -8 13 -17 4 -10 22 -36 41 -58 19 -22 35 -45 35 -52 0 -6 4 -13
8 -15 8 -3 55 -67 125 -171 18 -26 41 -50 52 -53 11 -2 42 4 70 14 47 17 50
20 57 62 5 25 12 100 17 168 5 68 12 126 15 129 7 7 66 -53 66 -67 0 -4 3 -10
8 -12 10 -5 72 -97 72 -108 0 -6 4 -10 8 -10 4 0 16 -14 26 -31 18 -30 21 -31
64 -25 77 10 85 20 106 137 10 57 27 149 37 204 10 55 21 128 23 163 6 73 12
85 63 133 54 51 104 77 154 79 80 5 89 2 89 -25 0 -19 -10 -30 -47 -50 -67
-36 -151 -98 -195 -143 -100 -106 -65 -284 69 -344 55 -24 156 -33 210 -19 45
12 93 55 93 82 0 30 22 79 35 79 14 0 36 -18 57 -49 7 -10 25 -21 40 -24 21
-6 33 -1 55 21 15 16 56 52 91 81 34 29 62 57 62 62 0 5 -14 16 -31 25 -57 29
-77 64 -134 237 -54 165 -63 207 -47 207 5 0 52 -43 105 -95 52 -52 100 -95
106 -95 5 0 12 -8 15 -18 3 -9 32 -45 63 -79 62 -66 76 -82 110 -131 25 -34
25 -46 -9 -176 -22 -88 -18 -161 10 -183 20 -15 78 -17 87 -3 3 6 21 10 38 10
34 0 130 30 135 43 2 4 8 4 13 1 15 -9 69 16 69 31 0 17 -23 25 -69 25 -27 0
-44 7 -62 26 -21 23 -24 34 -23 102 1 43 17 181 37 307 63 409 68 469 39 504
-23 29 -61 29 -148 2 -38 -12 -85 -27 -104 -33 -46 -14 -60 -26 -53 -45 4 -11
14 -13 39 -8 22 4 44 0 63 -9 24 -13 32 -26 41 -72 13 -64 5 -230 -13 -241
-10 -6 -35 19 -84 83 -49 65 -61 79 -130 151 l-71 76 -44 -6 c-24 -3 -100 -24
-171 -47 -101 -32 -146 -42 -215 -44 -89 -3 -181 -27 -252 -66 -19 -11 -43
-22 -52 -26 -10 -3 -20 -15 -23 -25 -5 -16 -15 -19 -48 -18 -50 2 -136 -15
-174 -34 -16 -8 -40 -17 -55 -21 -31 -7 -37 -30 -12 -40 9 -3 32 -6 53 -6 53
0 71 -34 71 -137 0 -150 -20 -193 -59 -127 -11 19 -25 40 -31 47 -51 60 -63
76 -76 103 -8 18 -31 50 -50 73 -31 36 -39 40 -67 34 -18 -3 -48 -13 -67 -22
l-35 -16 -7 -173 c-3 -96 -9 -176 -12 -179 -8 -8 -41 35 -95 122 -60 96 -98
143 -123 151 -21 6 -133 -21 -252 -63 -38 -13 -110 -28 -160 -33 -79 -8 -118
-16 -221 -47 -39 -12 -93 -55 -104 -81 -14 -37 -34 -180 -26 -192 11 -17 29
-11 70 25 52 46 53 47 98 68 49 22 142 23 151 1 3 -9 4 -20 1 -24 -7 -11 -86
-65 -124 -84 -48 -26 -148 -131 -161 -171 -9 -26 -10 -64 -6 -121 5 -54 3 -84
-3 -84 -6 0 -25 16 -44 35 -39 40 -95 189 -104 278 -6 55 -5 56 22 63 30 7 48
41 60 113 l7 44 -38 -8 c-22 -4 -55 -8 -74 -9 -34 -1 -35 0 -46 49 -28 120
-32 139 -27 151 2 6 28 21 56 32 37 14 52 25 52 38 0 15 -10 20 -48 24 -28 4
-55 14 -67 26 -27 26 -90 213 -97 285 -6 59 5 92 36 108 14 8 26 3 55 -20 20
-17 42 -29 50 -26 16 6 32 69 43 167 6 60 12 76 26 78 30 6 83 -129 131 -333
14 -60 30 -123 35 -140 5 -16 12 -45 16 -62 8 -40 47 -73 78 -66 12 3 51 14
87 24 177 50 224 67 241 87 14 18 28 22 74 22 112 0 263 58 323 125 52 56 84
130 82 189 -2 71 -1 78 10 71 6 -4 8 -11 5 -16 -4 -5 3 -22 14 -38 12 -16 21
-33 21 -38 1 -21 76 -85 119 -103 67 -26 111 -15 159 41 20 24 58 66 83 93
l46 50 64 -29 c57 -26 75 -30 159 -29 96 0 204 27 235 58 18 17 71 136 90 198
19 64 4 71 -64 29 -81 -49 -198 -73 -254 -52 -30 12 -67 49 -67 68 0 26 38 50
119 77 45 14 86 26 91 26 5 0 34 11 64 25 59 27 70 47 57 105 -28 123 -142
217 -266 220 -84 2 -121 -5 -192 -40 -71 -35 -101 -67 -145 -154 -55 -108 -50
-264 13 -382 37 -68 34 -85 -14 -74 -19 4 -40 11 -46 14 -33 21 -113 242 -115
320 -1 25 4 31 31 38 24 6 34 16 39 36 3 15 10 41 15 58 14 47 4 64 -34 57
-18 -3 -40 -10 -49 -14 -31 -16 -48 2 -69 75 -29 101 -40 126 -53 126 -6 0
-49 -27 -96 -60z m694 -162 c15 -13 29 -37 32 -54 6 -31 5 -32 -58 -56 -57
-22 -63 -27 -65 -54 0 -16 -2 -35 -2 -41 -2 -30 -28 -9 -44 36 -26 73 -20 124
21 174 22 25 85 22 116 -5z m-742 -215 c10 -9 18 -23 18 -32 0 -9 11 -61 25
-115 13 -55 22 -103 18 -109 -3 -5 -17 7 -31 27 -14 21 -47 47 -76 61 -43 20
-62 23 -119 20 -38 -3 -73 -8 -78 -11 -6 -3 -34 -9 -63 -13 -48 -7 -55 -5 -75
17 -29 32 -27 63 7 93 36 34 88 31 171 -9 35 -16 69 -28 76 -25 7 2 16 20 19
39 5 26 16 39 44 54 46 24 42 23 64 3z m-2665 -594 c48 -30 108 -92 136 -141
11 -21 24 -38 29 -38 4 0 8 -6 8 -13 0 -26 40 -57 73 -57 62 0 80 18 92 90 5
36 14 65 19 65 12 0 49 -111 86 -260 17 -71 35 -139 40 -150 4 -11 13 -39 19
-61 8 -32 17 -43 37 -48 28 -7 114 12 252 56 73 24 92 34 92 49 0 10 -6 20
-12 20 -85 9 -92 14 -120 77 -40 91 -88 253 -88 296 0 22 9 53 21 72 17 28 27
34 54 34 29 0 38 -7 63 -42 31 -47 71 -167 97 -293 10 -44 23 -94 30 -112 22
-51 30 -51 230 7 200 57 205 58 205 42 0 -8 -8 -24 -17 -34 -18 -20 -19 -50
-8 -136 6 -42 4 -60 -11 -87 -21 -39 -34 -44 -41 -15 -3 10 -15 26 -27 34 -19
12 -31 12 -82 1 -79 -17 -201 -53 -243 -71 -29 -13 -32 -17 -20 -28 8 -7 33
-18 56 -25 25 -7 50 -22 61 -39 46 -64 109 -303 96 -360 -14 -59 -60 -88 -107
-68 -34 14 -61 56 -78 121 -5 16 -15 55 -23 85 -9 30 -26 95 -39 143 -13 49
-31 97 -40 108 -22 25 -72 25 -138 -1 -28 -12 -54 -19 -56 -16 -5 4 -57 -12
-145 -46 -40 -15 -22 -44 28 -46 23 -1 46 -10 60 -23 27 -25 54 -98 54 -145 0
-29 -5 -34 -62 -62 -56 -28 -126 -51 -168 -57 -8 -1 -22 -5 -30 -8 -8 -3 -24
-6 -35 -6 -34 -2 -179 1 -200 3 -60 7 -122 20 -140 29 -11 6 -34 16 -50 22
-51 18 -147 86 -198 140 -53 54 -126 160 -150 216 -39 88 -46 107 -56 144 -68
261 7 546 164 622 22 11 51 25 65 32 42 19 173 7 217 -20z m3704 -276 c6 -16
14 -48 18 -73 14 -85 -36 -148 -94 -122 -58 27 -58 126 -1 187 40 42 63 44 77
8z m-1527 -453 c8 -17 17 -54 21 -83 5 -42 2 -58 -14 -84 -56 -89 -164 14
-115 109 17 34 70 88 84 88 5 0 15 -14 24 -30z m-773 -61 c10 -19 56 -176 65
-222 5 -26 14 -59 23 -82 4 -11 14 -36 21 -55 6 -19 18 -51 25 -70 7 -19 12
-36 12 -37 -1 -1 -14 1 -30 4 -65 13 -100 80 -171 330 -32 115 -26 142 36 152
4 0 12 -9 19 -20z"/>
<path d="M5461 3502 c-16 -12 -22 -29 -23 -60 0 -23 -3 -42 -7 -42 -4 0 -22
13 -41 30 -36 30 -60 38 -60 20 0 -5 -5 -10 -11 -10 -6 0 -9 7 -6 14 4 10 1
13 -9 9 -21 -8 -17 -29 9 -46 70 -46 94 -81 123 -184 4 -16 40 -17 49 -3 4 6
2 33 -5 59 -10 41 -8 60 10 130 26 101 18 122 -29 83z"/>
<path d="M5197 3423 c-3 -5 2 -30 9 -58 21 -73 28 -125 18 -125 -5 0 -44 34
-87 76 -72 71 -79 75 -110 69 -17 -4 -36 -9 -40 -12 -9 -5 -3 -47 25 -163 23
-98 35 -117 62 -97 17 12 17 16 2 67 -17 58 -21 120 -7 120 4 0 40 -31 78 -70
71 -71 89 -79 137 -61 l24 10 -14 63 c-7 35 -18 79 -23 98 -6 19 -13 47 -16
63 -4 20 -11 27 -30 27 -13 0 -26 -3 -28 -7z"/>
<path d="M4778 3305 c-22 -13 -28 -25 -38 -87 -7 -40 -16 -89 -21 -108 -5 -19
-9 -51 -9 -72 0 -31 3 -35 20 -31 25 7 36 25 45 80 7 43 27 69 44 59 5 -4 12
-2 16 4 3 5 19 10 34 10 21 0 32 -8 46 -34 24 -44 48 -59 69 -43 16 12 16 14
-1 35 -10 12 -29 38 -43 58 -14 19 -35 47 -47 61 -13 14 -23 30 -23 34 0 14
-39 49 -52 49 -7 -1 -25 -7 -40 -15z"/>
<path d="M4477 3223 c-32 -9 -61 -21 -64 -28 -4 -13 51 -226 66 -252 6 -12 12
-11 30 4 19 16 21 22 12 46 -6 16 -11 41 -11 58 0 24 4 29 23 28 87 -5 141 99
74 146 -26 18 -54 18 -130 -2z"/>
<path d="M4294 3168 c-40 -10 -43 -20 -51 -135 -3 -55 -10 -90 -15 -85 -13 13
-46 72 -64 113 -16 36 -54 70 -54 48 0 -6 -7 -9 -15 -6 -7 3 -23 -2 -34 -11
l-21 -17 24 -119 c13 -65 29 -123 35 -129 8 -8 11 -8 11 2 0 7 4 10 9 7 16
-10 21 24 10 77 -23 107 -10 114 43 26 45 -75 67 -89 103 -65 22 15 25 24 26
79 1 34 4 73 8 87 7 22 10 17 25 -35 9 -33 21 -71 27 -84 9 -21 11 -22 32 -8
24 16 24 24 -3 112 -11 33 -24 79 -30 101 -12 48 -22 54 -66 42z"/>
<path d="M3787 3015 c-50 -27 -87 -77 -87 -118 0 -17 9 -50 20 -73 43 -88 183
-98 260 -19 18 19 33 47 37 68 7 47 -20 122 -53 144 -39 25 -128 24 -177 -2z
m120 -24 c19 -1 40 -41 47 -86 5 -33 2 -45 -17 -68 -27 -35 -92 -51 -128 -32
-31 17 -51 86 -37 127 13 36 61 68 97 63 14 -2 32 -4 38 -4z"/>
<path d="M3550 2951 c-59 -18 -91 -43 -112 -87 -20 -40 -21 -49 -9 -92 7 -27
23 -57 38 -70 36 -30 97 -46 124 -32 11 7 27 9 34 6 22 -8 60 28 52 49 -5 13
-11 14 -20 7 -22 -19 -94 -26 -126 -12 -31 13 -41 34 -41 93 0 60 68 115 116
95 9 -5 26 31 19 42 -7 11 -39 12 -75 1z"/>
<path d="M4623 2828 c-108 -20 -211 -45 -238 -57 -11 -5 -74 -28 -140 -52 -66
-23 -124 -46 -130 -49 -5 -4 -22 -10 -37 -14 -16 -3 -28 -11 -28 -16 0 -6 -4
-10 -9 -10 -5 0 -37 -16 -71 -35 -34 -19 -68 -35 -76 -35 -8 0 -22 -8 -32 -17
-9 -10 -51 -38 -92 -62 -41 -24 -77 -47 -80 -51 -3 -4 -36 -26 -75 -48 -78
-47 -99 -60 -125 -82 -10 -8 -31 -24 -46 -35 -16 -11 -36 -28 -46 -37 -10 -10
-22 -18 -27 -18 -5 0 -22 -13 -38 -28 -15 -15 -46 -39 -68 -52 -22 -13 -46
-30 -53 -37 -7 -7 -17 -13 -21 -13 -4 0 -17 -8 -29 -17 -11 -10 -30 -25 -43
-33 -12 -8 -30 -23 -40 -32 -10 -9 -31 -24 -48 -32 -16 -9 -34 -22 -38 -29 -4
-8 -21 -22 -38 -32 -16 -11 -37 -25 -45 -32 -42 -38 -64 -53 -77 -53 -20 0
-16 17 17 66 26 37 32 56 37 127 5 72 3 89 -17 132 -60 135 -204 191 -336 131
-93 -43 -158 -121 -203 -244 -51 -136 -126 -227 -234 -281 -96 -48 -150 -57
-222 -36 -80 22 -131 29 -138 18 -23 -36 124 -114 273 -145 75 -16 118 -19
202 -15 95 5 138 13 254 48 56 17 71 4 38 -32 -14 -16 -14 -18 6 -29 21 -11
135 -8 215 5 124 21 337 72 385 92 8 4 20 7 25 8 17 3 98 26 145 42 25 9 52
16 60 17 8 1 31 10 50 19 19 9 91 37 160 62 69 26 139 53 155 60 39 16 115 38
245 70 155 37 191 44 340 59 171 18 269 20 317 7 21 -6 62 -13 90 -16 56 -6
188 -55 238 -88 47 -31 95 -95 95 -128 0 -37 -12 -37 -103 0 -114 45 -203 69
-327 86 -115 16 -325 21 -423 10 -159 -18 -231 -30 -312 -52 -49 -14 -117 -31
-150 -39 -172 -42 -208 -52 -325 -89 -47 -14 -102 -30 -122 -34 -21 -5 -43
-12 -50 -18 -23 -16 -117 -45 -128 -38 -5 3 -10 2 -10 -3 0 -5 -33 -14 -72
-20 -40 -6 -93 -16 -118 -22 -25 -6 -60 -13 -78 -15 -18 -2 -58 -9 -90 -15
-106 -19 -421 -22 -526 -5 -53 8 -110 15 -127 15 -31 0 -100 20 -234 67 -83
29 -85 30 -198 91 -108 58 -194 130 -290 244 -16 18 -41 49 -58 68 -16 19 -29
38 -29 42 0 3 -6 13 -13 20 -8 7 -30 45 -51 83 -48 90 -70 120 -85 111 -18
-11 -13 -58 15 -142 65 -194 106 -274 220 -434 27 -38 167 -175 203 -200 24
-15 49 -35 89 -70 13 -11 30 -20 37 -20 8 0 20 -6 27 -13 13 -13 102 -58 248
-125 36 -16 81 -33 100 -37 19 -4 46 -13 60 -20 14 -7 61 -20 105 -29 186 -40
272 -56 296 -56 14 0 28 -3 32 -6 26 -26 527 -22 745 7 243 31 360 51 405 68
37 14 322 49 466 56 125 7 205 0 224 -19 7 -7 18 -11 24 -9 21 7 87 -36 108
-70 29 -48 36 -79 24 -114 -12 -36 -48 -50 -79 -31 -15 10 -20 24 -20 60 0 74
-14 82 -150 79 -110 -2 -219 -80 -276 -196 -36 -74 -37 -76 -31 -165 5 -82 9
-95 48 -162 91 -158 282 -291 464 -323 22 -4 44 -10 50 -13 5 -3 64 -5 130 -5
102 1 129 4 165 22 23 11 47 18 52 15 12 -8 150 60 208 101 25 18 50 34 56 36
12 5 96 97 136 149 36 48 105 187 128 263 50 157 44 367 -15 487 -85 174 -88
190 -53 218 134 106 228 236 283 392 26 72 30 204 11 296 -18 85 -54 184 -66
184 -4 0 -15 18 -25 40 -10 23 -23 44 -29 48 -6 4 -27 27 -46 52 -19 25 -37
46 -41 48 -3 1 -20 15 -37 30 -36 32 -176 110 -242 135 -25 9 -67 21 -95 27
-27 5 -72 14 -100 20 -86 17 -247 16 -342 -2z"/>
<path d="M3135 2819 c-3 -3 -19 -9 -37 -12 -18 -3 -45 -10 -60 -16 l-26 -10
20 -73 c11 -40 26 -95 32 -123 11 -43 16 -50 37 -50 27 0 29 13 14 93 -10 57
12 57 61 -3 41 -48 56 -57 79 -49 21 8 19 18 -10 52 -29 35 -31 48 -10 89 19
37 4 88 -28 100 -28 9 -67 11 -72 2z"/>
<path d="M2918 2749 c-13 -7 -15 -14 -8 -27 5 -9 19 -61 31 -114 12 -54 26
-102 33 -107 18 -15 59 6 51 27 -3 9 -11 37 -17 62 -40 166 -50 183 -90 159z"/>
<path d="M2701 2681 c-11 -11 -22 -41 -26 -68 -4 -26 -15 -84 -26 -127 -21
-89 -16 -107 26 -88 17 8 25 19 25 37 0 47 25 92 56 98 16 4 38 9 50 13 17 4
24 -1 33 -25 19 -44 41 -61 69 -50 22 8 22 10 7 39 -8 16 -19 30 -23 30 -4 0
-16 15 -26 33 -10 17 -27 41 -38 52 -10 11 -28 32 -39 48 -24 32 -61 35 -88 8z"/>
<path d="M2485 2626 c-15 -11 -17 -21 -11 -64 8 -60 -2 -69 -82 -79 l-47 -5
-13 46 c-12 48 -20 53 -52 36 -16 -9 -18 -15 -10 -36 6 -14 20 -67 31 -117 12
-51 25 -96 29 -101 5 -4 16 -3 26 2 14 8 19 23 19 67 l0 57 60 19 c32 10 60
17 61 16 0 -1 7 -24 14 -50 14 -53 33 -68 56 -45 13 13 12 28 -12 124 -32 130
-43 149 -69 130z"/>
<path d="M1959 2518 c-7 -13 -28 -53 -47 -91 -22 -44 -43 -72 -62 -82 -15 -8
-30 -18 -32 -23 -7 -18 -67 -51 -127 -71 -47 -15 -90 -21 -159 -21 -99 0 -141
8 -204 41 -61 32 -88 22 -88 -31 0 -10 21 -60 47 -111 49 -99 144 -212 170
-202 7 3 13 1 13 -5 0 -14 64 -51 130 -74 152 -54 294 -42 412 37 68 45 128
113 128 145 0 9 6 22 13 29 20 20 16 197 -6 246 -49 110 -105 193 -149 219
-26 16 -28 16 -39 -6z"/>
<path d="M876 2244 c-8 -8 -17 -14 -19 -14 -14 0 -156 -87 -182 -111 -39 -35
-153 -149 -169 -169 -24 -30 -76 -117 -76 -128 0 -7 -4 -12 -9 -12 -11 0 -54
-121 -86 -244 -23 -88 -26 -112 -20 -195 17 -251 90 -458 227 -642 28 -38 54
-69 58 -69 4 0 24 -16 46 -36 62 -57 65 -58 158 -107 48 -26 99 -47 112 -47
12 0 25 -4 28 -9 9 -14 99 -29 206 -34 45 -3 116 11 198 39 65 21 163 92 220
157 48 55 102 152 102 182 0 7 4 16 9 19 8 5 23 75 36 175 13 102 -41 304
-100 367 -13 14 -25 29 -27 32 -5 11 -69 62 -77 62 -7 0 -24 -13 -69 -51 -34
-29 -143 -68 -208 -74 -118 -12 -216 28 -315 129 -67 68 -100 127 -128 229
-49 180 -12 351 105 485 25 28 43 56 40 61 -10 16 -46 19 -60 5z"/>
</g>
</svg>
